<?xml version="1.0" encoding="UTF-8" standalone="no"?>
<svg
   height="48px"
   viewBox="0 -960 960 960"
   width="48px"
   fill="#008000"
   version="1.1"
   id="svg1"
   sodipodi:docname="back.svg"
   inkscape:version="1.3.2 (1:1.3.2+202404261509+091e20ef0f)"
   xmlns:inkscape="http://www.inkscape.org/namespaces/inkscape"
   xmlns:sodipodi="http://sodipodi.sourceforge.net/DTD/sodipodi-0.dtd"
   xmlns="http://www.w3.org/2000/svg"
   xmlns:svg="http://www.w3.org/2000/svg">
  <defs
     id="defs1" />
  <sodipodi:namedview
     id="namedview1"
     pagecolor="#ffffff"
     bordercolor="#000000"
     borderopacity="0.25"
     inkscape:showpageshadow="2"
     inkscape:pageopacity="0.0"
     inkscape:pagecheckerboard="0"
     inkscape:deskcolor="#d1d1d1"
     inkscape:zoom="16.416667"
     inkscape:cx="24"
     inkscape:cy="24"
     inkscape:window-width="1866"
     inkscape:window-height="1011"
     inkscape:window-x="0"
     inkscape:window-y="0"
     inkscape:window-maximized="1"
     inkscape:current-layer="svg1" />
  <path
     d="m 820.65028,-153.62025 q 27.58,0 47.86,-20.77 20.27,-20.78 20.27,-47.36 v -515.7 q 0,-26.58 -20.27,-47.48 -20.28,-20.89 -47.86,-20.89 h -247.87 q -13.44,0 -26.49,5.72 -13.06,5.72 -22.25,14.91 l -42.24,42.24 h -336.85 q -26.58,0 -47.480001,20.77 -20.89,20.78 -20.89,47.36 v 453.07 q 0,26.58 20.89,47.36 20.900001,20.77 47.480001,20.77 z m -378.59,-252.15 47.31,47.3 q 9.47,9.48 9.47,22.08 0,12.59 -9.95,22.55 -9.72,9.72 -22.68,9.72 -12.95,0 -22.67,-9.72 l -100.22,-100.22 q -10.19,-10.19 -10.19,-24.11 0,-13.91 10.19,-24.1 l 100.22,-100.22 q 9.72,-9.72 22.67,-9.72 12.96,0 23.16,10.2 9.47,9.48 9.47,22.07 0,12.6 -9.47,22.08 l -47.31,47.3 h 170.5 q 13.96,0 23.17,9.22 9.22,9.22 9.22,23.17 0,13.96 -9.22,23.18 -9.21,9.22 -23.17,9.22 z"
     id="path1"
     inkscape:label="path1" />
</svg>
