<?xml version="1.0" encoding="UTF-8" standalone="no"?>
<svg
   height="48px"
   viewBox="0 -960 960 960"
   width="48px"
   fill="#5f6368"
   version="1.1"
   id="svg1"
   sodipodi:docname="battery_20.svg"
   inkscape:version="1.3.2 (1:1.3.2+202404261509+091e20ef0f)"
   xmlns:inkscape="http://www.inkscape.org/namespaces/inkscape"
   xmlns:sodipodi="http://sodipodi.sourceforge.net/DTD/sodipodi-0.dtd"
   xmlns="http://www.w3.org/2000/svg"
   xmlns:svg="http://www.w3.org/2000/svg">
  <defs
     id="defs1" />
  <sodipodi:namedview
     id="namedview1"
     pagecolor="#ffffff"
     bordercolor="#000000"
     borderopacity="0.25"
     inkscape:showpageshadow="2"
     inkscape:pageopacity="0.0"
     inkscape:pagecheckerboard="0"
     inkscape:deskcolor="#d1d1d1"
     inkscape:zoom="27.362376"
     inkscape:cx="23.992799"
     inkscape:cy="24.011072"
     inkscape:window-width="1452"
     inkscape:window-height="991"
     inkscape:window-x="26"
     inkscape:window-y="23"
     inkscape:window-maximized="0"
     inkscape:current-layer="svg1" />
  <path
     d="m 310,-80 c -8.5,0 -15.62333,-2.876667 -21.37,-8.63 C 282.87667,-94.376667 280,-101.5 280,-110 v -676 c 0,-8.5 2.87667,-15.62667 8.63,-21.38 5.74667,-5.74667 12.87,-8.62 21.37,-8.62 h 90 v -34 c 0,-8.5 2.87667,-15.62667 8.63,-21.38 5.74667,-5.74667 12.87,-8.62 21.37,-8.62 h 100 c 8.5,0 15.62667,2.87333 21.38,8.62 5.74667,5.75333 8.62,12.88 8.62,21.38 v 34 h 90 c 8.5,0 15.62667,2.87333 21.38,8.62 5.74667,5.75333 8.62,12.88 8.62,21.38 v 676 c 0,8.5 -2.87333,15.623333 -8.62,21.37 C 665.62667,-82.876667 658.5,-80 650,-80 Z m 30,-188 H 620 V -756 H 340 Z"
     id="path1"
     sodipodi:nodetypes="scsssscsssscscscsssssccccc" />
</svg>
